<?xml version="1.0" encoding="utf-8"?>
<!-- Generator: Adobe Illustrator 13.0.2, SVG Export Plug-In . SVG Version: 6.00 Build 14948)  -->
<!DOCTYPE svg PUBLIC "-//W3C//DTD SVG 1.1//EN" "http://www.w3.org/Graphics/SVG/1.1/DTD/svg11.dtd" [
	<!ENTITY ns_extend "http://ns.adobe.com/Extensibility/1.0/">
	<!ENTITY ns_ai "http://ns.adobe.com/AdobeIllustrator/10.0/">
	<!ENTITY ns_graphs "http://ns.adobe.com/Graphs/1.0/">
	<!ENTITY ns_vars "http://ns.adobe.com/Variables/1.0/">
	<!ENTITY ns_imrep "http://ns.adobe.com/ImageReplacement/1.0/">
	<!ENTITY ns_sfw "http://ns.adobe.com/SaveForWeb/1.0/">
	<!ENTITY ns_custom "http://ns.adobe.com/GenericCustomNamespace/1.0/">
	<!ENTITY ns_adobe_xpath "http://ns.adobe.com/XPath/1.0/">
]>
<svg version="1.1" id="Layer_1" xmlns:x="&ns_extend;" xmlns:i="&ns_ai;" xmlns:graph="&ns_graphs;"
	 xmlns="http://www.w3.org/2000/svg" xmlns:xlink="http://www.w3.org/1999/xlink" x="0px" y="0px" width="161.998px"
	 height="60.236px" viewBox="0 0 161.998 60.236" enable-background="new 0 0 161.998 60.236" xml:space="preserve">
<switch>
	<g i:extraneous="self">
		<g>
			<g>
				<g>
					<g>
						<g>
							<path fill="#F47B20" d="M48.267,0c-1.709,0-3.098,1.389-3.098,3.098v27.537c0,1.709,1.389,3.1,3.098,3.1h27.539
								c1.707,0,3.096-1.391,3.096-3.1V3.098C78.901,1.389,77.513,0,75.806,0H48.267z M46.765,30.635V3.098
								c0-0.828,0.674-1.502,1.502-1.502h27.539c0.826,0,1.5,0.674,1.5,1.502v27.537c0,0.828-0.674,1.502-1.5,1.502H48.267
								C47.438,32.137,46.765,31.463,46.765,30.635z"/>
						</g>
						<g>
							<path fill="#F47B20" d="M56.048,9.441c0,0.793-0.643,1.438-1.438,1.438h-4.312c-0.793,0-1.438-0.645-1.438-1.438V5.129
								c0-0.793,0.645-1.436,1.438-1.436h4.312c0.795,0,1.438,0.643,1.438,1.436V9.441z"/>
							<path fill="#F47B20" d="M65.628,9.441c0,0.793-0.643,1.438-1.438,1.438H59.88c-0.795,0-1.438-0.645-1.438-1.438V5.129
								c0-0.793,0.643-1.436,1.438-1.436h4.311c0.795,0,1.438,0.643,1.438,1.436V9.441z"/>
							<path fill="#F47B20" d="M75.208,9.441c0,0.793-0.643,1.438-1.436,1.438H69.46c-0.793,0-1.436-0.645-1.436-1.438V5.129
								c0-0.793,0.643-1.436,1.436-1.436h4.312c0.793,0,1.436,0.643,1.436,1.436V9.441z"/>
							<path fill="#F47B20" d="M56.048,19.023c0,0.793-0.643,1.436-1.438,1.436h-4.312c-0.793,0-1.438-0.643-1.438-1.436v-4.312
								c0-0.795,0.645-1.438,1.438-1.438h4.312c0.795,0,1.438,0.643,1.438,1.438V19.023z"/>
							<path fill="#F47B20" d="M65.628,19.023c0,0.793-0.643,1.436-1.438,1.436H59.88c-0.795,0-1.438-0.643-1.438-1.436v-4.312
								c0-0.795,0.643-1.438,1.438-1.438h4.311c0.795,0,1.438,0.643,1.438,1.438V19.023z"/>
							<path fill="#056CB6" d="M75.208,19.023c0,0.793-0.643,1.436-1.436,1.436H69.46c-0.793,0-1.436-0.643-1.436-1.436v-4.312
								c0-0.795,0.643-1.438,1.436-1.438h4.312c0.793,0,1.436,0.643,1.436,1.438V19.023z"/>
							<path fill="#F47B20" d="M56.048,28.604c0,0.793-0.643,1.438-1.438,1.438h-4.312c-0.793,0-1.438-0.645-1.438-1.438v-4.311
								c0-0.795,0.645-1.438,1.438-1.438h4.312c0.795,0,1.438,0.643,1.438,1.438V28.604z"/>
							<path fill="#F47B20" d="M65.628,28.604c0,0.793-0.643,1.438-1.438,1.438H59.88c-0.795,0-1.438-0.645-1.438-1.438v-4.311
								c0-0.795,0.643-1.438,1.438-1.438h4.311c0.795,0,1.438,0.643,1.438,1.438V28.604z"/>
							<path fill="#F47B20" d="M75.208,28.604c0,0.793-0.643,1.438-1.436,1.438H69.46c-0.793,0-1.436-0.645-1.436-1.438v-4.311
								c0-0.795,0.643-1.438,1.436-1.438h4.312c0.793,0,1.436,0.643,1.436,1.438V28.604z"/>
						</g>
					</g>
					<g>
						<path fill="#056CB6" d="M86.192,0c-1.707,0-3.098,1.389-3.098,3.098v27.537c0,1.709,1.391,3.1,3.098,3.1h27.539
							c1.707,0,3.098-1.391,3.098-3.1V3.098c0-1.709-1.391-3.098-3.098-3.098H86.192z"/>
					</g>
				</g>
				<g>
					<path fill="#056CB6" d="M1.793,48.025v2.484c0.871-2.586,3.328-2.662,5.658-2.662h0.23c1.816,0,3.941,0.025,5.426,1.203
						c1.229,0.973,1.307,2.328,1.307,3.762v7.246h-1.793v-7.066c0-3.303-2.15-3.559-4.939-3.559c-2.867,0-5.889,0.078-5.889,3.84
						v6.785H0V48.025H1.793z"/>
					<path fill="#056CB6" d="M31.182,60.059v-2.33c-0.896,2.305-3.354,2.508-5.504,2.508c-3.559,0-7.143-0.256-7.143-4.76v-0.385
						v-7.066h1.793v6.58c0,3.789,1.689,4.045,5.043,4.045c3.148,0,5.811-0.18,5.811-4.045v-6.58h1.791v12.033H31.182z"/>
					<path fill="#056CB6" d="M40.91,48.025c1.178-0.127,2.381-0.152,3.559-0.152c4.812,0,8.012,0.152,8.012,5.939
						c0,6.092-2.355,6.424-8.039,6.424c-4.838,0-7.756-0.332-7.756-6.066C36.686,50.867,37.197,48.512,40.91,48.025z M43.777,58.676
						c0.23,0,0.461-0.025,0.691-0.025c3.404-0.154,6.117,0.256,6.117-4.045c0-2.201-0.076-4.607-2.738-4.992
						c-1.383-0.154-2.766-0.154-4.148-0.154c-3.584,0-5.094,0.359-5.094,4.584C38.605,58.061,40.039,58.676,43.777,58.676z"/>
					<path fill="#056CB6" d="M68.047,48.025h2.023l-6.988,12.033h-2.355l-6.861-12.033h2.021l6.018,10.6L68.047,48.025z"/>
					<path fill="#056CB6" d="M84.227,60.059V58.65c-0.641,1.1-1.562,1.408-2.766,1.51c-1.1,0.076-2.201,0.076-3.301,0.076h-1.562
						c-2.586,0-5.248-0.281-5.248-3.584c0-2.584,0.818-3.48,3.404-3.711c1.152-0.129,2.33-0.129,3.482-0.129
						c1.127,0,2.252,0.027,3.379,0.104c1.254,0.102,1.869,0.332,2.611,1.33v-1.279c0-1.049-0.051-2.355-0.973-2.969
						c-0.795-0.539-2.996-0.564-4.275-0.564c-1.152,0-2.33,0-3.482,0.154c-1.305,0.18-1.664,0.818-1.664,2.047h-1.945
						c0-2.662,1.127-3.404,3.637-3.635c0.92-0.102,1.867-0.152,2.789-0.152c1.715,0,3.533,0,5.197,0.434
						c2.201,0.59,2.508,2.279,2.508,4.275v7.502H84.227z M76.086,58.6l2.1,0.051c1.279,0,3.354,0,4.582-0.334
						c0.922-0.256,1.459-0.869,1.459-1.842c0-0.717-0.334-1.383-0.998-1.689c-0.742-0.334-2.15-0.41-3.379-0.41
						c-0.615,0-1.178,0.025-1.588,0.025c-1.178,0-2.918,0-4.02,0.41c-0.818,0.307-0.973,1.049-0.973,1.842
						C73.27,58.42,74.627,58.574,76.086,58.6z"/>
					<path fill="#056CB6" d="M100.764,48.025v1.537h-8.32v5.785c0,2.713,0.742,3.303,3.404,3.303c1.998,0,3.584-0.154,3.584-2.535
						c0-0.461-0.025-0.896-0.025-1.355h1.664c0,4.043-0.23,5.477-5.018,5.477c-3.123,0-5.4-0.281-5.4-4.043v-0.846v-5.785h-2.92
						v-1.537h2.92h1.791H100.764z"/>
					<path fill="#056CB6" d="M105.5,48.025v12.033h-1.793V48.025H105.5z"/>
					<path fill="#056CB6" d="M113.461,48.025c1.178-0.127,2.381-0.152,3.559-0.152c4.812,0,8.012,0.152,8.012,5.939
						c0,6.092-2.354,6.424-8.037,6.424c-4.838,0-7.758-0.332-7.758-6.066C109.236,50.867,109.748,48.512,113.461,48.025z
						 M116.328,58.676c0.23,0,0.461-0.025,0.691-0.025c3.404-0.154,6.119,0.256,6.119-4.045c0-2.201-0.078-4.607-2.74-4.992
						c-1.383-0.154-2.766-0.154-4.146-0.154c-3.584,0-5.096,0.359-5.096,4.584C111.156,58.061,112.59,58.676,116.328,58.676z"/>
					<path fill="#056CB6" d="M130.588,48.025v2.484c0.869-2.586,3.328-2.662,5.658-2.662h0.229c1.818,0,3.943,0.025,5.428,1.203
						c1.229,0.973,1.307,2.328,1.307,3.762v7.246h-1.793v-7.066c0-3.303-2.15-3.559-4.941-3.559c-2.867,0-5.887,0.078-5.887,3.84
						v6.785h-1.793V48.025H130.588z"/>
					<path fill="#056CB6" d="M159.746,51.379c-0.129-1.434-0.512-1.664-1.971-1.842c-1.178-0.104-2.381-0.104-3.533-0.104
						c-1.127,0-2.254,0.025-3.354,0.18c-1.076,0.154-1.998,0.461-1.998,1.639c0,1.561,0.922,1.791,2.279,1.791l3.098,0.078h3.354
						c2.611,0,4.377,0.537,4.377,3.48c0,3.559-2.432,3.379-5.17,3.584c-1.127,0.025-2.229,0.051-3.354,0.051
						c-1.307,0-2.893-0.025-4.045-0.256c-2.049-0.434-2.611-1.51-2.611-3.455c0-0.18,0.025-0.359,0.025-0.537h1.816
						c0.027,0.102,0.027,0.205,0.027,0.281c0,1.715,0.689,2.125,2.303,2.277c1.051,0.053,2.1,0.104,3.148,0.104
						c1.383,0,2.766,0,4.123-0.154c1.125-0.152,1.816-0.461,1.816-1.613c0-1.816-0.922-2.201-2.637-2.201l-3.25-0.025h-3.098
						c-2.381,0-4.123-0.436-4.123-3.199c0-2.51,1.613-3.303,3.867-3.457c1.125-0.076,2.277-0.152,3.404-0.152
						c1.279,0,2.586,0,3.865,0.127c2.457,0.18,3.328,0.973,3.43,3.404H159.746z"/>
				</g>
			</g>
			<g>
				<g>
					<path fill="#056CB6" d="M119.802,0c0.426,0,0.79,0.15,1.092,0.45c0.303,0.3,0.454,0.66,0.454,1.081
						c0,0.423-0.151,0.784-0.454,1.084c-0.304,0.299-0.668,0.45-1.094,0.45c-0.43,0-0.796-0.15-1.099-0.45
						c-0.304-0.299-0.455-0.661-0.455-1.085c0-0.421,0.151-0.781,0.455-1.081C119.006,0.149,119.372,0,119.802,0z M119.8,0.158
						c-0.377,0-0.697,0.133-0.964,0.401c-0.268,0.268-0.4,0.592-0.4,0.971c0,0.38,0.133,0.705,0.4,0.973
						c0.265,0.268,0.585,0.403,0.962,0.403c0.375,0,0.695-0.134,0.963-0.402c0.263-0.268,0.396-0.593,0.396-0.973
						c0-0.379-0.132-0.703-0.396-0.971S120.176,0.158,119.8,0.158z M119.104,2.374V0.659l0.854,0c0.354,0,0.531,0.168,0.531,0.502
						c0,0.244-0.08,0.391-0.238,0.445c0.141,0.047,0.212,0.159,0.212,0.329v0.439l-0.226,0V1.979c0-0.184-0.085-0.273-0.255-0.273
						h-0.063h-0.59v0.668L119.104,2.374z M119.33,1.502h0.562c0.246,0,0.369-0.099,0.369-0.294c0-0.146-0.017-0.239-0.054-0.281
						c-0.037-0.043-0.12-0.064-0.247-0.064h-0.631V1.502z"/>
				</g>
			</g>
		</g>
	</g>
</switch>
</svg>
